<svg width="97" height="29" viewBox="0 0 97 29" fill="none" xmlns="http://www.w3.org/2000/svg">
<g clip-path="url(#clip0_1_751)">
<path fill-rule="evenodd" clip-rule="evenodd" d="M12.7252 7.79218C13.8536 6.40674 15.4222 6.3999 15.4222 6.3999C15.4222 6.3999 15.6555 7.70255 14.5346 8.95762C13.3376 10.2976 11.9773 10.0784 11.9773 10.0784C11.9773 10.0784 11.7217 9.02438 12.7252 7.79218Z" fill="#C7CBCF"/>
<path fill-rule="evenodd" clip-rule="evenodd" d="M12.1201 10.9919C12.7007 10.9919 13.7778 10.2485 15.1802 10.2485C17.594 10.2485 18.5436 11.8487 18.5436 11.8487C18.5436 11.8487 16.6864 12.7334 16.6864 14.8801C16.6864 17.3016 19.0001 18.1362 19.0001 18.1362C19.0001 18.1362 17.3827 22.3774 15.1983 22.3774C14.1948 22.3774 13.415 21.7474 12.3576 21.7474C11.2802 21.7474 10.2113 22.4008 9.51504 22.4008C7.5202 22.4011 5.00006 18.378 5.00006 15.144C5.00006 11.9623 7.13314 10.2932 9.1339 10.2932C10.4347 10.293 11.4442 10.9919 12.1201 10.9919Z" fill="#C7CBCF"/>
</g>
<path d="M36.4521 8.4879H37.5581L41.7721 18.3999H40.4001L39.3921 15.9639H34.4361L33.4141 18.3999H32.0841L36.4521 8.4879ZM36.9841 9.9999H36.9561L34.8981 14.8719H38.9441L36.9841 9.9999ZM42.8375 11.8479H43.9295V12.7999H43.9575C44.2561 12.4452 44.6015 12.1699 44.9935 11.9739C45.3948 11.7779 45.8335 11.6799 46.3095 11.6799C46.8228 11.6799 47.2895 11.7686 47.7095 11.9459C48.1388 12.1139 48.5028 12.3519 48.8015 12.6599C49.1001 12.9679 49.3335 13.3319 49.5015 13.7519C49.6695 14.1719 49.7535 14.6292 49.7535 15.1239C49.7535 15.6186 49.6695 16.0759 49.5015 16.4959C49.3335 16.9159 49.1001 17.2799 48.8015 17.5879C48.5121 17.8959 48.1668 18.1386 47.7655 18.3159C47.3641 18.4839 46.9348 18.5679 46.4775 18.5679C45.8895 18.5679 45.3715 18.4419 44.9235 18.1899C44.4848 17.9286 44.1628 17.6112 43.9575 17.2379H43.9295V21.5919H42.8375V11.8479ZM43.9295 15.1239C43.9295 15.4692 43.9808 15.7912 44.0835 16.0899C44.1955 16.3792 44.3541 16.6359 44.5595 16.8599C44.7648 17.0746 45.0075 17.2472 45.2875 17.3779C45.5768 17.4992 45.8988 17.5599 46.2535 17.5599C46.6081 17.5599 46.9255 17.4992 47.2055 17.3779C47.4948 17.2472 47.7421 17.0746 47.9475 16.8599C48.1528 16.6359 48.3068 16.3792 48.4095 16.0899C48.5215 15.7912 48.5775 15.4692 48.5775 15.1239C48.5775 14.7786 48.5215 14.4612 48.4095 14.1719C48.3068 13.8732 48.1528 13.6166 47.9475 13.4019C47.7421 13.1779 47.4948 13.0052 47.2055 12.8839C46.9255 12.7532 46.6081 12.6879 46.2535 12.6879C45.8988 12.6879 45.5768 12.7532 45.2875 12.8839C45.0075 13.0052 44.7648 13.1779 44.5595 13.4019C44.3541 13.6166 44.1955 13.8732 44.0835 14.1719C43.9808 14.4612 43.9295 14.7786 43.9295 15.1239ZM51.3961 11.8479H52.4881V12.7999H52.5161C52.8147 12.4452 53.1601 12.1699 53.5521 11.9739C53.9534 11.7779 54.3921 11.6799 54.8681 11.6799C55.3814 11.6799 55.8481 11.7686 56.2681 11.9459C56.6974 12.1139 57.0614 12.3519 57.3601 12.6599C57.6587 12.9679 57.8921 13.3319 58.0601 13.7519C58.2281 14.1719 58.3121 14.6292 58.3121 15.1239C58.3121 15.6186 58.2281 16.0759 58.0601 16.4959C57.8921 16.9159 57.6587 17.2799 57.3601 17.5879C57.0707 17.8959 56.7254 18.1386 56.3241 18.3159C55.9227 18.4839 55.4934 18.5679 55.0361 18.5679C54.4481 18.5679 53.9301 18.4419 53.4821 18.1899C53.0434 17.9286 52.7214 17.6112 52.5161 17.2379H52.4881V21.5919H51.3961V11.8479ZM52.4881 15.1239C52.4881 15.4692 52.5394 15.7912 52.6421 16.0899C52.7541 16.3792 52.9127 16.6359 53.1181 16.8599C53.3234 17.0746 53.5661 17.2472 53.8461 17.3779C54.1354 17.4992 54.4574 17.5599 54.8121 17.5599C55.1667 17.5599 55.4841 17.4992 55.7641 17.3779C56.0534 17.2472 56.3007 17.0746 56.5061 16.8599C56.7114 16.6359 56.8654 16.3792 56.9681 16.0899C57.0801 15.7912 57.1361 15.4692 57.1361 15.1239C57.1361 14.7786 57.0801 14.4612 56.9681 14.1719C56.8654 13.8732 56.7114 13.6166 56.5061 13.4019C56.3007 13.1779 56.0534 13.0052 55.7641 12.8839C55.4841 12.7532 55.1667 12.6879 54.8121 12.6879C54.4574 12.6879 54.1354 12.7532 53.8461 12.8839C53.5661 13.0052 53.3234 13.1779 53.1181 13.4019C52.9127 13.6166 52.7541 13.8732 52.6421 14.1719C52.5394 14.4612 52.4881 14.7786 52.4881 15.1239ZM68.8072 10.2379C68.6112 9.92057 68.3498 9.6919 68.0232 9.5519C67.6965 9.40257 67.3558 9.3279 67.0012 9.3279C66.7398 9.3279 66.4832 9.36057 66.2312 9.4259C65.9792 9.49124 65.7505 9.58924 65.5452 9.7199C65.3492 9.85057 65.1905 10.0232 65.0692 10.2379C64.9478 10.4526 64.8872 10.7046 64.8872 10.9939C64.8872 11.2179 64.9198 11.4186 64.9852 11.5959C65.0598 11.7639 65.1765 11.9179 65.3352 12.0579C65.4938 12.1979 65.7085 12.3286 65.9792 12.4499C66.2498 12.5712 66.5812 12.6926 66.9732 12.8139C67.3558 12.9352 67.7245 13.0659 68.0792 13.2059C68.4432 13.3459 68.7605 13.5232 69.0312 13.7379C69.3112 13.9526 69.5305 14.2232 69.6892 14.5499C69.8572 14.8672 69.9412 15.2686 69.9412 15.7539C69.9412 16.2486 69.8432 16.6779 69.6472 17.0419C69.4512 17.4059 69.1898 17.7092 68.8632 17.9519C68.5458 18.1852 68.1772 18.3579 67.7572 18.4699C67.3372 18.5912 66.9032 18.6519 66.4552 18.6519C66.1658 18.6519 65.8765 18.6239 65.5872 18.5679C65.2978 18.5212 65.0178 18.4466 64.7472 18.3439C64.4858 18.2319 64.2385 18.0919 64.0052 17.9239C63.7718 17.7466 63.5712 17.5319 63.4032 17.2799L64.4112 16.4539C64.6258 16.8179 64.9245 17.0932 65.3072 17.2799C65.6898 17.4666 66.0958 17.5599 66.5252 17.5599C66.7772 17.5599 67.0292 17.5226 67.2812 17.4479C67.5425 17.3732 67.7758 17.2659 67.9812 17.1259C68.1865 16.9766 68.3545 16.7946 68.4852 16.5799C68.6158 16.3652 68.6812 16.1179 68.6812 15.8379C68.6812 15.5299 68.6298 15.2826 68.5272 15.0959C68.4245 14.8999 68.2658 14.7319 68.0512 14.5919C67.8365 14.4519 67.5658 14.3259 67.2392 14.2139C66.9125 14.1019 66.5298 13.9712 66.0912 13.8219C65.7365 13.7099 65.4098 13.5839 65.1112 13.4439C64.8125 13.2946 64.5512 13.1172 64.3272 12.9119C64.1125 12.6972 63.9398 12.4452 63.8092 12.1559C63.6878 11.8572 63.6272 11.5026 63.6272 11.0919C63.6272 10.6159 63.7205 10.2006 63.9072 9.8459C64.0938 9.49124 64.3458 9.19724 64.6632 8.9639C64.9805 8.72124 65.3398 8.53923 65.7412 8.4179C66.1425 8.29657 66.5625 8.2359 67.0012 8.2359C67.5612 8.2359 68.0698 8.32457 68.5272 8.5019C68.9938 8.6699 69.4092 8.96857 69.7732 9.3979L68.8072 10.2379ZM75.2705 12.7719H73.3385V16.0479C73.3385 16.2626 73.3431 16.4632 73.3525 16.6499C73.3618 16.8272 73.3991 16.9859 73.4645 17.1259C73.5298 17.2566 73.6278 17.3639 73.7585 17.4479C73.8891 17.5226 74.0758 17.5599 74.3185 17.5599C74.4771 17.5599 74.6405 17.5412 74.8085 17.5039C74.9765 17.4666 75.1351 17.4106 75.2845 17.3359L75.3265 18.3299C75.1398 18.4139 74.9298 18.4746 74.6965 18.5119C74.4725 18.5492 74.2578 18.5679 74.0525 18.5679C73.6605 18.5679 73.3478 18.5166 73.1145 18.4139C72.8811 18.3112 72.6991 18.1666 72.5685 17.9799C72.4378 17.7932 72.3491 17.5646 72.3025 17.2939C72.2651 17.0139 72.2465 16.7059 72.2465 16.3699V12.7719H70.8185V11.8479H72.2465V9.9859H73.3385V11.8479H75.2705V12.7719ZM76.2303 15.1239C76.2303 14.6106 76.319 14.1439 76.4963 13.7239C76.6737 13.3039 76.9163 12.9446 77.2243 12.6459C77.5323 12.3379 77.901 12.0999 78.3303 11.9319C78.7597 11.7639 79.2263 11.6799 79.7303 11.6799C80.2343 11.6799 80.701 11.7639 81.1303 11.9319C81.5597 12.0999 81.9283 12.3379 82.2363 12.6459C82.5443 12.9446 82.787 13.3039 82.9643 13.7239C83.1417 14.1439 83.2303 14.6106 83.2303 15.1239C83.2303 15.6372 83.1417 16.1039 82.9643 16.5239C82.787 16.9439 82.5443 17.3079 82.2363 17.6159C81.9283 17.9146 81.5597 18.1479 81.1303 18.3159C80.701 18.4839 80.2343 18.5679 79.7303 18.5679C79.2263 18.5679 78.7597 18.4839 78.3303 18.3159C77.901 18.1479 77.5323 17.9146 77.2243 17.6159C76.9163 17.3079 76.6737 16.9439 76.4963 16.5239C76.319 16.1039 76.2303 15.6372 76.2303 15.1239ZM77.4063 15.1239C77.4063 15.4692 77.4577 15.7912 77.5603 16.0899C77.6723 16.3792 77.831 16.6359 78.0363 16.8599C78.2417 17.0746 78.4843 17.2472 78.7643 17.3779C79.0537 17.4992 79.3757 17.5599 79.7303 17.5599C80.085 17.5599 80.4023 17.4992 80.6823 17.3779C80.9717 17.2472 81.219 17.0746 81.4243 16.8599C81.6297 16.6359 81.7837 16.3792 81.8863 16.0899C81.9983 15.7912 82.0543 15.4692 82.0543 15.1239C82.0543 14.7786 81.9983 14.4612 81.8863 14.1719C81.7837 13.8732 81.6297 13.6166 81.4243 13.4019C81.219 13.1779 80.9717 13.0052 80.6823 12.8839C80.4023 12.7532 80.085 12.6879 79.7303 12.6879C79.3757 12.6879 79.0537 12.7532 78.7643 12.8839C78.4843 13.0052 78.2417 13.1779 78.0363 13.4019C77.831 13.6166 77.6723 13.8732 77.5603 14.1719C77.4577 14.4612 77.4063 14.7786 77.4063 15.1239ZM84.9208 13.4019C84.9208 13.1032 84.9115 12.8232 84.8928 12.5619C84.8742 12.3006 84.8648 12.0626 84.8648 11.8479H85.9008C85.9008 12.0252 85.9055 12.2026 85.9148 12.3799C85.9242 12.5572 85.9288 12.7392 85.9288 12.9259H85.9568C86.0315 12.7672 86.1342 12.6132 86.2648 12.4639C86.4048 12.3146 86.5682 12.1839 86.7548 12.0719C86.9415 11.9506 87.1515 11.8572 87.3848 11.7919C87.6182 11.7172 87.8702 11.6799 88.1408 11.6799C88.2155 11.6799 88.2902 11.6846 88.3648 11.6939C88.4395 11.7032 88.5142 11.7219 88.5888 11.7499L88.5188 12.8559C88.3322 12.7999 88.1362 12.7719 87.9308 12.7719C87.2588 12.7719 86.7688 12.9912 86.4608 13.4299C86.1622 13.8592 86.0128 14.4519 86.0128 15.2079V18.3999H84.9208V13.4019ZM95.4486 17.2099C95.0566 17.7139 94.6273 18.0686 94.1606 18.2739C93.6939 18.4699 93.1526 18.5679 92.5366 18.5679C92.0233 18.5679 91.5613 18.4792 91.1506 18.3019C90.7399 18.1152 90.3899 17.8679 90.1006 17.5599C89.8206 17.2519 89.6013 16.8879 89.4426 16.4679C89.2933 16.0479 89.2186 15.5999 89.2186 15.1239C89.2186 14.6199 89.3026 14.1579 89.4706 13.7379C89.6386 13.3086 89.8719 12.9446 90.1706 12.6459C90.4693 12.3379 90.8239 12.0999 91.2346 11.9319C91.6453 11.7639 92.0933 11.6799 92.5786 11.6799C93.0359 11.6799 93.4559 11.7592 93.8386 11.9179C94.2213 12.0672 94.5479 12.2912 94.8186 12.5899C95.0986 12.8792 95.3133 13.2386 95.4626 13.6679C95.6119 14.0879 95.6866 14.5686 95.6866 15.1099V15.4599H90.3946C90.4133 15.7399 90.4786 16.0106 90.5906 16.2719C90.7119 16.5239 90.8659 16.7479 91.0526 16.9439C91.2393 17.1306 91.4586 17.2799 91.7106 17.3919C91.9626 17.5039 92.2379 17.5599 92.5366 17.5599C93.0126 17.5599 93.4139 17.4759 93.7406 17.3079C94.0673 17.1399 94.3613 16.8926 94.6226 16.5659L95.4486 17.2099ZM94.5106 14.5359C94.4919 13.9759 94.3099 13.5279 93.9646 13.1919C93.6193 12.8559 93.1433 12.6879 92.5366 12.6879C91.9299 12.6879 91.4399 12.8559 91.0666 13.1919C90.6933 13.5279 90.4693 13.9759 90.3946 14.5359H94.5106Z" fill="#C7CBCF"/>
<defs>
<clipPath id="clip0_1_751">
<rect width="14" height="16" fill="white" transform="translate(5.00006 6.3999)"/>
</clipPath>
</defs>
</svg>
