<svg width="96" height="29" viewBox="0 0 96 29" fill="none" xmlns="http://www.w3.org/2000/svg">
<path d="M12.8339 14.2007L15.2772 11.6915L6.54066 6.59843C6.07988 6.3307 5.67367 6.34938 5.39478 6.56107L12.8339 14.2007Z" fill="#C7CBCF"/>
<path d="M5.2002 6.75049C5.07288 6.93728 5.00012 7.19255 5.00012 7.51632V21.2825C5.00012 21.6001 5.07288 21.8554 5.2002 22.0422L12.6514 14.3901L5.2002 6.75049Z" fill="#C7CBCF"/>
<path d="M12.8407 14.5957L5.40161 22.2415C5.68657 22.4532 6.08671 22.4657 6.54143 22.1979L15.278 17.0987L12.8407 14.5957Z" fill="#C7CBCF"/>
<path d="M18.3628 13.495L15.5193 11.8389L13.0274 14.3979L15.5193 16.9568L18.3688 15.2944C19.2116 14.8026 19.2116 13.9931 18.3628 13.495Z" fill="#C7CBCF"/>
<path d="M33.2321 8.4879H36.1721C36.6295 8.4879 37.0635 8.53457 37.4741 8.6279C37.8941 8.7119 38.2628 8.86124 38.5801 9.0759C38.9068 9.28124 39.1635 9.56124 39.3501 9.9159C39.5461 10.2612 39.6441 10.6906 39.6441 11.2039C39.6441 11.7452 39.5415 12.1932 39.3361 12.5479C39.1308 12.9026 38.8648 13.1826 38.5381 13.3879C38.2208 13.5932 37.8708 13.7379 37.4881 13.8219C37.1055 13.9059 36.7415 13.9479 36.3961 13.9479H34.4081V18.3999H33.2321V8.4879ZM34.4081 12.8559H36.3961C36.9841 12.8559 37.4601 12.7252 37.8241 12.4639C38.1975 12.1932 38.3841 11.7779 38.3841 11.2179C38.3841 10.6579 38.1975 10.2472 37.8241 9.9859C37.4601 9.71524 36.9841 9.5799 36.3961 9.5799H34.4081V12.8559ZM41.433 7.8159H42.525V18.3999H41.433V7.8159ZM44.6142 12.6879C44.9502 12.3426 45.3469 12.0906 45.8042 11.9319C46.2709 11.7639 46.7422 11.6799 47.2182 11.6799C48.1889 11.6799 48.8889 11.9086 49.3182 12.3659C49.7476 12.8232 49.9622 13.5186 49.9622 14.4519V17.2659C49.9622 17.4526 49.9716 17.6486 49.9902 17.8539C50.0089 18.0499 50.0322 18.2319 50.0602 18.3999H49.0102C48.9729 18.2506 48.9496 18.0872 48.9402 17.9099C48.9402 17.7232 48.9402 17.5599 48.9402 17.4199H48.9122C48.6976 17.7559 48.4082 18.0312 48.0442 18.2459C47.6896 18.4606 47.2602 18.5679 46.7562 18.5679C46.4202 18.5679 46.1029 18.5259 45.8042 18.4419C45.5149 18.3579 45.2582 18.2366 45.0342 18.0779C44.8196 17.9099 44.6469 17.7046 44.5162 17.4619C44.3856 17.2192 44.3202 16.9392 44.3202 16.6219C44.3202 16.0806 44.4602 15.6559 44.7402 15.3479C45.0202 15.0399 45.3656 14.8112 45.7762 14.6619C46.1962 14.5126 46.6442 14.4192 47.1202 14.3819C47.6056 14.3446 48.0489 14.3259 48.4502 14.3259H48.8702V14.1299C48.8702 13.6539 48.7256 13.2946 48.4362 13.0519C48.1562 12.8092 47.7596 12.6879 47.2462 12.6879C46.8916 12.6879 46.5416 12.7486 46.1962 12.8699C45.8602 12.9819 45.5616 13.1592 45.3002 13.4019L44.6142 12.6879ZM47.7782 15.2499C47.0782 15.2499 46.5229 15.3479 46.1122 15.5439C45.7016 15.7399 45.4962 16.0619 45.4962 16.5099C45.4962 16.9206 45.6316 17.2146 45.9022 17.3919C46.1822 17.5599 46.5276 17.6439 46.9382 17.6439C47.2556 17.6439 47.5309 17.5926 47.7642 17.4899C48.0069 17.3779 48.2076 17.2332 48.3662 17.0559C48.5249 16.8786 48.6462 16.6732 48.7302 16.4399C48.8142 16.1972 48.8609 15.9406 48.8702 15.6699V15.2499H47.7782ZM54.366 19.8979C54.254 20.1779 54.1373 20.4299 54.016 20.6539C53.904 20.8872 53.764 21.0832 53.596 21.2419C53.4373 21.4099 53.2413 21.5359 53.008 21.6199C52.784 21.7132 52.5087 21.7599 52.182 21.7599C52.0233 21.7599 51.8553 21.7506 51.678 21.7319C51.51 21.7132 51.3513 21.6666 51.202 21.5919L51.342 20.6399C51.454 20.6866 51.5707 20.7146 51.692 20.7239C51.8133 20.7426 51.9533 20.7519 52.112 20.7519C52.4667 20.7519 52.728 20.6539 52.896 20.4579C53.064 20.2619 53.2087 20.0006 53.33 19.6739L53.778 18.4419L51.062 11.8479H52.336L54.366 16.9859H54.394L56.34 11.8479H57.53L54.366 19.8979ZM67.5084 10.2379C67.3124 9.92057 67.0511 9.6919 66.7244 9.5519C66.3977 9.40257 66.0571 9.3279 65.7024 9.3279C65.4411 9.3279 65.1844 9.36057 64.9324 9.4259C64.6804 9.49124 64.4517 9.58924 64.2464 9.7199C64.0504 9.85057 63.8917 10.0232 63.7704 10.2379C63.6491 10.4526 63.5884 10.7046 63.5884 10.9939C63.5884 11.2179 63.6211 11.4186 63.6864 11.5959C63.7611 11.7639 63.8777 11.9179 64.0364 12.0579C64.1951 12.1979 64.4097 12.3286 64.6804 12.4499C64.9511 12.5712 65.2824 12.6926 65.6744 12.8139C66.0571 12.9352 66.4257 13.0659 66.7804 13.2059C67.1444 13.3459 67.4617 13.5232 67.7324 13.7379C68.0124 13.9526 68.2317 14.2232 68.3904 14.5499C68.5584 14.8672 68.6424 15.2686 68.6424 15.7539C68.6424 16.2486 68.5444 16.6779 68.3484 17.0419C68.1524 17.4059 67.8911 17.7092 67.5644 17.9519C67.2471 18.1852 66.8784 18.3579 66.4584 18.4699C66.0384 18.5912 65.6044 18.6519 65.1564 18.6519C64.8671 18.6519 64.5777 18.6239 64.2884 18.5679C63.9991 18.5212 63.7191 18.4466 63.4484 18.3439C63.1871 18.2319 62.9397 18.0919 62.7064 17.9239C62.4731 17.7466 62.2724 17.5319 62.1044 17.2799L63.1124 16.4539C63.3271 16.8179 63.6257 17.0932 64.0084 17.2799C64.3911 17.4666 64.7971 17.5599 65.2264 17.5599C65.4784 17.5599 65.7304 17.5226 65.9824 17.4479C66.2437 17.3732 66.4771 17.2659 66.6824 17.1259C66.8877 16.9766 67.0557 16.7946 67.1864 16.5799C67.3171 16.3652 67.3824 16.1179 67.3824 15.8379C67.3824 15.5299 67.3311 15.2826 67.2284 15.0959C67.1257 14.8999 66.9671 14.7319 66.7524 14.5919C66.5377 14.4519 66.2671 14.3259 65.9404 14.2139C65.6137 14.1019 65.2311 13.9712 64.7924 13.8219C64.4377 13.7099 64.1111 13.5839 63.8124 13.4439C63.5137 13.2946 63.2524 13.1172 63.0284 12.9119C62.8137 12.6972 62.6411 12.4452 62.5104 12.1559C62.3891 11.8572 62.3284 11.5026 62.3284 11.0919C62.3284 10.6159 62.4217 10.2006 62.6084 9.8459C62.7951 9.49124 63.0471 9.19724 63.3644 8.9639C63.6817 8.72124 64.0411 8.53923 64.4424 8.4179C64.8437 8.29657 65.2637 8.2359 65.7024 8.2359C66.2624 8.2359 66.7711 8.32457 67.2284 8.5019C67.6951 8.6699 68.1104 8.96857 68.4744 9.3979L67.5084 10.2379ZM73.9717 12.7719H72.0397V16.0479C72.0397 16.2626 72.0444 16.4632 72.0537 16.6499C72.063 16.8272 72.1004 16.9859 72.1657 17.1259C72.231 17.2566 72.329 17.3639 72.4597 17.4479C72.5904 17.5226 72.777 17.5599 73.0197 17.5599C73.1784 17.5599 73.3417 17.5412 73.5097 17.5039C73.6777 17.4666 73.8364 17.4106 73.9857 17.3359L74.0277 18.3299C73.841 18.4139 73.631 18.4746 73.3977 18.5119C73.1737 18.5492 72.959 18.5679 72.7537 18.5679C72.3617 18.5679 72.049 18.5166 71.8157 18.4139C71.5824 18.3112 71.4004 18.1666 71.2697 17.9799C71.139 17.7932 71.0504 17.5646 71.0037 17.2939C70.9664 17.0139 70.9477 16.7059 70.9477 16.3699V12.7719H69.5197V11.8479H70.9477V9.9859H72.0397V11.8479H73.9717V12.7719ZM74.9316 15.1239C74.9316 14.6106 75.0202 14.1439 75.1976 13.7239C75.3749 13.3039 75.6176 12.9446 75.9256 12.6459C76.2336 12.3379 76.6022 12.0999 77.0316 11.9319C77.4609 11.7639 77.9276 11.6799 78.4316 11.6799C78.9356 11.6799 79.4022 11.7639 79.8316 11.9319C80.2609 12.0999 80.6296 12.3379 80.9376 12.6459C81.2456 12.9446 81.4882 13.3039 81.6656 13.7239C81.8429 14.1439 81.9316 14.6106 81.9316 15.1239C81.9316 15.6372 81.8429 16.1039 81.6656 16.5239C81.4882 16.9439 81.2456 17.3079 80.9376 17.6159C80.6296 17.9146 80.2609 18.1479 79.8316 18.3159C79.4022 18.4839 78.9356 18.5679 78.4316 18.5679C77.9276 18.5679 77.4609 18.4839 77.0316 18.3159C76.6022 18.1479 76.2336 17.9146 75.9256 17.6159C75.6176 17.3079 75.3749 16.9439 75.1976 16.5239C75.0202 16.1039 74.9316 15.6372 74.9316 15.1239ZM76.1076 15.1239C76.1076 15.4692 76.1589 15.7912 76.2616 16.0899C76.3736 16.3792 76.5322 16.6359 76.7376 16.8599C76.9429 17.0746 77.1856 17.2472 77.4656 17.3779C77.7549 17.4992 78.0769 17.5599 78.4316 17.5599C78.7862 17.5599 79.1036 17.4992 79.3836 17.3779C79.6729 17.2472 79.9202 17.0746 80.1256 16.8599C80.3309 16.6359 80.4849 16.3792 80.5876 16.0899C80.6996 15.7912 80.7556 15.4692 80.7556 15.1239C80.7556 14.7786 80.6996 14.4612 80.5876 14.1719C80.4849 13.8732 80.3309 13.6166 80.1256 13.4019C79.9202 13.1779 79.6729 13.0052 79.3836 12.8839C79.1036 12.7532 78.7862 12.6879 78.4316 12.6879C78.0769 12.6879 77.7549 12.7532 77.4656 12.8839C77.1856 13.0052 76.9429 13.1779 76.7376 13.4019C76.5322 13.6166 76.3736 13.8732 76.2616 14.1719C76.1589 14.4612 76.1076 14.7786 76.1076 15.1239ZM83.6221 13.4019C83.6221 13.1032 83.6127 12.8232 83.5941 12.5619C83.5754 12.3006 83.5661 12.0626 83.5661 11.8479H84.6021C84.6021 12.0252 84.6067 12.2026 84.6161 12.3799C84.6254 12.5572 84.6301 12.7392 84.6301 12.9259H84.6581C84.7327 12.7672 84.8354 12.6132 84.9661 12.4639C85.1061 12.3146 85.2694 12.1839 85.4561 12.0719C85.6427 11.9506 85.8527 11.8572 86.0861 11.7919C86.3194 11.7172 86.5714 11.6799 86.8421 11.6799C86.9167 11.6799 86.9914 11.6846 87.0661 11.6939C87.1407 11.7032 87.2154 11.7219 87.2901 11.7499L87.2201 12.8559C87.0334 12.7999 86.8374 12.7719 86.6321 12.7719C85.9601 12.7719 85.4701 12.9912 85.1621 13.4299C84.8634 13.8592 84.7141 14.4519 84.7141 15.2079V18.3999H83.6221V13.4019ZM94.1498 17.2099C93.7578 17.7139 93.3285 18.0686 92.8618 18.2739C92.3952 18.4699 91.8538 18.5679 91.2378 18.5679C90.7245 18.5679 90.2625 18.4792 89.8518 18.3019C89.4412 18.1152 89.0912 17.8679 88.8018 17.5599C88.5218 17.2519 88.3025 16.8879 88.1438 16.4679C87.9945 16.0479 87.9198 15.5999 87.9198 15.1239C87.9198 14.6199 88.0038 14.1579 88.1718 13.7379C88.3398 13.3086 88.5732 12.9446 88.8718 12.6459C89.1705 12.3379 89.5252 12.0999 89.9358 11.9319C90.3465 11.7639 90.7945 11.6799 91.2798 11.6799C91.7372 11.6799 92.1572 11.7592 92.5398 11.9179C92.9225 12.0672 93.2492 12.2912 93.5198 12.5899C93.7998 12.8792 94.0145 13.2386 94.1638 13.6679C94.3132 14.0879 94.3878 14.5686 94.3878 15.1099V15.4599H89.0958C89.1145 15.7399 89.1798 16.0106 89.2918 16.2719C89.4132 16.5239 89.5672 16.7479 89.7538 16.9439C89.9405 17.1306 90.1598 17.2799 90.4118 17.3919C90.6638 17.5039 90.9392 17.5599 91.2378 17.5599C91.7138 17.5599 92.1152 17.4759 92.4418 17.3079C92.7685 17.1399 93.0625 16.8926 93.3238 16.5659L94.1498 17.2099ZM93.2118 14.5359C93.1932 13.9759 93.0112 13.5279 92.6658 13.1919C92.3205 12.8559 91.8445 12.6879 91.2378 12.6879C90.6312 12.6879 90.1412 12.8559 89.7678 13.1919C89.3945 13.5279 89.1705 13.9759 89.0958 14.5359H93.2118Z" fill="#C7CBCF"/>
</svg>
